<svg width="617" height="618" viewBox="0 0 617 618" fill="none" xmlns="http://www.w3.org/2000/svg">
<path d="M237.1 169.6H192V445.9H237.1V169.6Z" fill="black"/>
<path d="M357.3 225.5C373 243.3 380 270.9 380 302.3V446H425.4V277C425.4 240.5 411.4 213 393.8 194.4C372.9 172.5 347.5 161.5 317.5 161.5C302.9 161.5 288.6 164.5 274.7 170.4C272.3 171.4 269.8 172.6 267.2 174V219.3C290.8 210.7 335.2 200.5 357.3 225.5Z" fill="black"/>
<path d="M308.4 617.2C138.3 617.2 0 478.8 0 308.8C0 138.8 138.3 0.299988 308.4 0.299988C478.5 0.299988 616.8 138.7 616.8 308.7C616.8 478.7 478.4 617.2 308.4 617.2ZM308.4 44C162.4 44 43.6 162.8 43.6 308.7C43.6 454.6 162.4 573.5 308.4 573.5C454.4 573.5 573.2 454.7 573.2 308.7C573.2 162.7 454.3 44 308.4 44Z" fill="black"/>
</svg>
