<?xml version="1.0" encoding="UTF-8"?><svg id="Layer_1" xmlns="http://www.w3.org/2000/svg" viewBox="0 0 100 98.28"><path d="m39.01,28.01h-6.79v41.63h6.79V28.01Z"/><path d="m57.12,36.43c2.37,2.68,3.42,6.84,3.42,11.57v21.65h6.84v-25.46c0-5.5-2.11-9.64-4.76-12.44-3.15-3.3-6.98-4.96-11.5-4.96-2.2,0-4.35.45-6.45,1.34-.36.15-.74.33-1.13.54v6.83c3.56-1.3,10.25-2.83,13.57.93Z"/><path d="m49.76,95.45c-25.63,0-46.47-20.85-46.47-46.47S24.13,2.5,49.76,2.5s46.47,20.85,46.47,46.47-20.85,46.48-46.47,46.48Zm0-86.36c-22,0-39.9,17.9-39.9,39.88s17.9,39.9,39.9,39.9,39.9-17.9,39.9-39.9S71.74,9.09,49.76,9.09Z"/></svg>